<svg width="177" height="155" viewBox="0 0 177 155" fill="none" xmlns="http://www.w3.org/2000/svg">
<path d="M34.7278 121.304C32.1139 117.935 24.4215 109.848 14.5633 104.457C4.71024 99.068 0.750998 89.4907 0.00118026 85.3688C0.000571901 85.3655 0.00319238 85.3628 0.00656007 85.3632C8.22501 86.4896 26.6642 94.1289 34.7278 115.688V89.8551C32.1139 86.1111 24.8696 77.7246 16.8038 74.1304C8.74181 70.5379 2.24668 58.4173 0.00319714 52.7979C0.00174632 52.7942 0.00462941 52.7907 0.00848391 52.7913C8.60109 54.2928 27.5606 62.4561 34.7278 83.1159V55.0362C33.2342 52.7899 28.2304 47.1739 20.1646 42.6812C12.1039 38.1913 7.10129 28.0925 5.60412 23.5955C5.60285 23.5917 5.60609 23.5883 5.60995 23.5894C12.3359 25.4656 27.5613 33.2533 34.7278 49.4203L33.9277 43.8043L33.6076 41.558C31.7409 33.6972 32.711 13.4862 47.0421 0.00798304C47.0453 0.00498209 47.0506 0.00674124 47.0506 0.0111215C47.0494 5.63313 46.1521 18.6497 42.5696 25.8333C40.0196 30.9467 37.6963 38.2578 36.1643 43.8043L36.1894 46.8899C45.9569 30.8173 59.2775 24.6612 64.9672 23.5884C64.9709 23.5877 64.9736 23.5908 64.9727 23.5944C63.4764 29.2121 58.282 39.6731 51.5316 42.6812C43.1925 46.3972 38.9406 50.1132 36.2407 53.1937L36.4563 79.6985C41.7418 70.0827 53.247 55.1839 68.3261 52.7913C68.3301 52.7907 68.3333 52.7944 68.3316 52.7981C65.7147 58.4176 58.6978 70.538 51.5316 74.1304C45.6388 77.0846 39.8468 83.2762 36.5195 87.4665L36.7218 112.339C42.4516 103.4 54.4765 89.3191 69.4463 85.3648C69.4502 85.3638 69.4538 85.3672 69.4524 85.371C67.5812 90.2432 61.384 101.765 51.5316 108.949C44.3082 114.216 39.4505 117.795 36.7823 119.774L36.9459 139.888L57.6 130.29L57.6005 130.29C60.3901 126.032 64.2348 118.614 64.9747 111.196C65.8706 102.213 75.7967 92.4828 80.653 88.7359C80.6557 88.7338 80.6593 88.7349 80.6605 88.738C83.2722 95.8558 83.3409 113.896 62.7342 129.167L87.3782 121.305C87.3792 121.305 87.3801 121.304 87.3807 121.303C90.3684 117.184 96.5659 106.927 97.462 98.8406C98.3578 90.7574 108.282 82.001 113.139 78.628C113.142 78.6258 113.146 78.6277 113.146 78.6315C113.89 87.6166 111.127 108.256 94.1287 119.041C94.1239 119.044 94.1268 119.051 94.1324 119.05L119.865 112.319C119.866 112.319 119.867 112.318 119.868 112.317C122.109 109.321 127.037 101.535 128.829 94.3478C130.62 87.1638 137.782 78.6337 141.146 75.2598C141.148 75.257 141.153 75.2583 141.154 75.2622C142.644 82.0044 141.37 98.6093 124.366 111.182C124.362 111.185 124.365 111.192 124.37 111.191L135.55 108.949L135.551 108.949C144.139 104.831 164.447 99.0673 176.994 108.944C176.997 108.947 176.997 108.951 176.993 108.953C173.254 110.825 163.327 114.34 153.475 113.442C141.166 112.32 137.799 110.078 127.744 112.311C127.738 112.312 127.737 112.321 127.743 112.321C133.737 112.71 148.336 117.288 159.07 132.527C159.072 132.531 159.07 132.536 159.066 132.535C154.951 132.158 144.73 130.061 136.671 124.674C126.589 117.935 127.709 115.347 120.988 114.565C120.988 114.565 120.987 114.565 120.986 114.565L94.1013 121.304C100.075 119.807 116.054 122.427 132.184 144.882C132.186 144.886 132.184 144.891 132.18 144.891C126.946 144.514 114.485 141.966 106.424 134.783C98.3596 127.595 91.1164 124.301 88.5013 123.551C88.5004 123.551 88.4995 123.551 88.4986 123.551L61.6402 131.405C61.6349 131.407 61.6347 131.415 61.6402 131.415C71.3598 132.172 92.7571 137.941 100.819 154.991C100.82 154.995 100.818 154.999 100.814 154.999C95.954 154.248 84.2381 151.402 76.1772 146.014C66.0949 139.275 66.0949 135.906 56.0127 132.536L36.9638 142.086L36.9683 142.64C36.9683 142.643 36.9661 142.645 36.9633 142.645H35.8481V140.399L34.7278 121.304Z" fill="#2B3825"/>
</svg>
